<svg width="512" height="512" xmlns="http://www.w3.org/2000/svg">
 <!--! Font Awesome Pro 6.1.2 by @fontawesome - https://fontawesome.com License - https://fontawesome.com/license (Commercial License) Copyright 2022 Fonticons, Inc. -->

 <g>
  <title>background</title>
  <rect fill="none" id="canvas_background" height="514" width="514" y="-1" x="-1"/>
 </g>
 <g>
  <title>Layer 1</title>
  <path fill="#ffffff" stroke="null" id="svg_1" d="m256.028423,190.70161c-36.144282,0 -65.298397,29.154115 -65.298397,65.298397s29.154115,65.298397 65.298397,65.298397s65.298397,-29.154115 65.298397,-65.298397s-29.154115,-65.298397 -65.298397,-65.298397zm0,107.75088c-23.35739,0 -42.452483,-19.038262 -42.452483,-42.452483s19.038262,-42.452483 42.452483,-42.452483s42.452483,19.038262 42.452483,42.452483s-19.095093,42.452483 -42.452483,42.452483zm83.200046,-110.421919c0,8.467764 -6.819676,15.23061 -15.23061,15.23061c-8.467764,0 -15.23061,-6.819676 -15.23061,-15.23061s6.819676,-15.23061 15.23061,-15.23061s15.23061,6.819676 15.23061,15.23061zm43.248111,15.457932c-0.966121,-20.402197 -5.626233,-38.474338 -20.572689,-53.363964c-14.889626,-14.889626 -32.961767,-19.549738 -53.363964,-20.572689c-21.027334,-1.193443 -84.052506,-1.193443 -105.07984,0c-20.345367,0.966121 -38.417508,5.626233 -53.363964,20.515858s-19.549738,32.961767 -20.572689,53.363964c-1.193443,21.027334 -1.193443,84.052506 0,105.07984c0.966121,20.402197 5.626233,38.474338 20.572689,53.363964s32.961767,19.549738 53.363964,20.572689c21.027334,1.193443 84.052506,1.193443 105.07984,0c20.402197,-0.966121 38.474338,-5.626233 53.363964,-20.572689c14.889626,-14.889626 19.549738,-32.961767 20.572689,-53.363964c1.193443,-21.027334 1.193443,-83.995675 0,-105.023009zm-27.165042,127.58477c-4.432789,11.138804 -13.014215,19.72023 -24.20985,24.20985c-16.765037,6.649184 -56.54648,5.114757 -75.073266,5.114757s-58.36506,1.477596 -75.073266,-5.114757c-11.138804,-4.432789 -19.72023,-13.014215 -24.20985,-24.20985c-6.649184,-16.765037 -5.114757,-56.54648 -5.114757,-75.073266s-1.477596,-58.36506 5.114757,-75.073266c4.432789,-11.138804 13.014215,-19.72023 24.20985,-24.20985c16.765037,-6.649184 56.54648,-5.114757 75.073266,-5.114757s58.36506,-1.477596 75.073266,5.114757c11.138804,4.432789 19.72023,13.014215 24.20985,24.20985c6.649184,16.765037 5.114757,56.54648 5.114757,75.073266s1.534427,58.36506 -5.114757,75.073266z"/>
 </g>
</svg>