<svg width="512" height="512" xmlns="http://www.w3.org/2000/svg">
 <title/>

 <g>
  <title>background</title>
  <rect fill="none" id="canvas_background" height="402" width="582" y="-1" x="-1"/>
 </g>
 <g>
  <title>Layer 1</title>
  <path fill="#ffffff" stroke="null" id="svg_1" d="m428.382095,149.090121c-12.656838,5.655183 -26.323529,9.425305 -40.596133,11.108395c14.609222,-8.752069 25.784941,-22.620731 31.103505,-39.115014c-13.666692,8.078833 -28.814503,14.00331 -44.904844,17.167519c-12.926132,-13.734015 -31.305476,-22.284113 -51.637205,-22.284113c-39.047691,0 -70.689785,31.642094 -70.689785,70.689785c0,5.520536 0.605912,10.906424 1.817737,16.090341c-58.773507,-2.962239 -110.881977,-31.103505 -145.755604,-73.921318c-6.059124,10.435159 -9.559952,22.620731 -9.559952,35.546863c0,24.505792 12.454867,46.183993 31.440123,58.84083c-11.57966,-0.336618 -22.486084,-3.568151 -32.046036,-8.819392c0,0.269294 0,0.605912 0,0.875207c0,34.267715 24.371145,62.880247 56.753799,69.343313c-5.924477,1.615767 -12.185572,2.490973 -18.648638,2.490973c-4.578005,0 -8.954039,-0.471265 -13.330074,-1.279148c9.021363,28.073943 35.142922,48.540319 66.044456,49.146231c-24.236498,18.985256 -54.666767,30.295622 -87.857304,30.295622c-5.722506,0 -11.310366,-0.336618 -16.898225,-1.009854c31.3728,20.129758 68.535429,31.776741 108.458327,31.776741c130.069204,0 201.230254,-107.785091 201.230254,-201.230254c0,-3.096886 -0.067324,-6.126448 -0.201971,-9.15601c13.801339,-9.89657 25.784941,-22.351437 35.277569,-36.556717z"/>
 </g>
</svg>